<?xml version="1.0" encoding="utf-8"?>
<!-- Generator: Adobe Illustrator 20.1.0, SVG Export Plug-In . SVG Version: 6.00 Build 0)  -->
<svg version="1.1" id="Layer_1" xmlns="http://www.w3.org/2000/svg" xmlns:xlink="http://www.w3.org/1999/xlink" x="0px" y="0px"
	 viewBox="0 0 792 612" style="enable-background:new 0 0 792 612;" xml:space="preserve">
<style type="text/css">
	.st0{fill:#F37321;}
	.st1{fill:#D3492A;}
	.st2{fill-rule:evenodd;clip-rule:evenodd;fill:#F37321;}
	.st3{fill-rule:evenodd;clip-rule:evenodd;fill:#D3492A;}
</style>
<g>
	<path class="st0" d="M228.2,318.9h6.7v15.3h17.3v-15.3h6.7v38.6h-6.7v-17.4h-17.3v17.4h-6.7V318.9z"/>
	<path class="st0" d="M277.6,318.9h6.7v38.6h-6.7V318.9z"/>
	<path class="st0" d="M307.4,344.6c0,1.5,0.2,2.7,0.8,3.8c0.5,1,1.2,1.9,2.1,2.6c0.9,0.7,1.9,1.1,3.1,1.5c1.2,0.3,2.4,0.5,3.8,0.5
		c1.5,0,2.7-0.2,3.7-0.5c1-0.3,1.9-0.8,2.5-1.3c0.6-0.5,1.1-1.2,1.4-1.9c0.3-0.7,0.4-1.4,0.4-2.1c0-1.5-0.3-2.6-1-3.3
		c-0.7-0.7-1.4-1.2-2.2-1.5c-1.3-0.5-2.9-1-4.7-1.4c-1.8-0.5-4-1-6.6-1.8c-1.6-0.4-3-1-4.1-1.7c-1.1-0.7-1.9-1.5-2.6-2.4
		c-0.6-0.9-1.1-1.8-1.4-2.7c-0.3-1-0.4-2-0.4-3c0-1.9,0.4-3.6,1.2-5c0.8-1.4,1.9-2.6,3.2-3.5c1.3-0.9,2.8-1.6,4.5-2.1
		c1.7-0.5,3.3-0.7,5.1-0.7c2,0,3.9,0.3,5.6,0.8c1.8,0.5,3.3,1.3,4.6,2.4c1.3,1.1,2.4,2.3,3.2,3.9c0.8,1.5,1.2,3.3,1.2,5.3h-6.7
		c-0.2-2.5-1-4.2-2.5-5.3c-1.5-1-3.4-1.5-5.7-1.5c-0.8,0-1.6,0.1-2.4,0.3c-0.8,0.2-1.6,0.4-2.2,0.8c-0.7,0.4-1.2,0.9-1.7,1.5
		c-0.4,0.7-0.7,1.5-0.7,2.4c0,1.4,0.4,2.4,1.3,3.2c0.8,0.8,1.9,1.4,3.3,1.8c0.1,0,0.7,0.2,1.7,0.5c1,0.3,2.1,0.6,3.3,0.9
		c1.2,0.3,2.4,0.6,3.5,0.9c1.2,0.3,2,0.5,2.5,0.7c1.2,0.4,2.3,0.9,3.3,1.6c0.9,0.7,1.7,1.5,2.3,2.3c0.6,0.9,1.1,1.8,1.4,2.8
		c0.3,1,0.5,2,0.5,3c0,2.2-0.4,4-1.3,5.5c-0.9,1.5-2,2.8-3.4,3.7c-1.4,1-3,1.7-4.9,2.1c-1.8,0.4-3.7,0.7-5.5,0.7
		c-2.2,0-4.2-0.3-6.1-0.8c-1.9-0.5-3.6-1.4-5-2.5c-1.4-1.1-2.6-2.5-3.4-4.3c-0.8-1.7-1.3-3.8-1.3-6.2H307.4z"/>
	<path class="st0" d="M348.2,318.9H365c2.7,0,4.9,0.4,6.6,1.2c1.7,0.8,3,1.8,3.9,3c0.9,1.2,1.6,2.5,1.9,3.9c0.3,1.4,0.5,2.7,0.5,3.9
		c0,1.2-0.2,2.5-0.5,3.8c-0.3,1.4-1,2.7-1.9,3.9c-0.9,1.2-2.2,2.2-3.9,2.9c-1.7,0.8-3.9,1.2-6.6,1.2h-10.1v14.8h-6.7V318.9z
		 M354.9,337.2h9.8c0.8,0,1.5-0.1,2.3-0.3c0.8-0.2,1.5-0.6,2.2-1.1c0.7-0.5,1.2-1.1,1.6-1.9c0.4-0.8,0.6-1.8,0.6-3.1
		c0-1.3-0.2-2.3-0.5-3.1c-0.4-0.8-0.8-1.5-1.4-2c-0.6-0.5-1.3-0.8-2.1-1c-0.8-0.2-1.6-0.3-2.5-0.3h-9.9V337.2z"/>
	<path class="st0" d="M400.7,318.9h7.1l14.7,38.6h-7.1l-3.6-10.2h-15.2l-3.6,10.2h-6.9L400.7,318.9z M398.3,342.1H410l-5.7-16.6
		h-0.2L398.3,342.1z"/>
	<path class="st0" d="M436.5,318.9h7.1l17.4,28.4h0.1v-28.4h6.3v38.6h-7.1L443,329.1h-0.2v28.3h-6.3V318.9z"/>
	<path class="st0" d="M485.9,318.9h6.7v38.6h-6.7V318.9z"/>
	<path class="st0" d="M537,331.2c-0.3-1.1-0.7-2.1-1.2-3.1c-0.5-0.9-1.1-1.7-1.9-2.4c-0.8-0.7-1.7-1.2-2.7-1.6
		c-1.1-0.4-2.3-0.6-3.7-0.6c-2,0-3.8,0.4-5.3,1.2c-1.5,0.8-2.7,1.9-3.6,3.3c-0.9,1.4-1.6,3-2.1,4.7c-0.4,1.8-0.7,3.6-0.7,5.4
		c0,1.8,0.2,3.6,0.7,5.4c0.5,1.8,1.1,3.3,2.1,4.7c0.9,1.4,2.1,2.5,3.6,3.3c1.5,0.8,3.2,1.2,5.3,1.2c1.5,0,2.8-0.3,4-0.8
		c1.1-0.5,2.1-1.2,2.9-2.2c0.8-0.9,1.4-2,1.9-3.2c0.5-1.2,0.8-2.5,0.9-3.9h6.5c-0.1,2.3-0.6,4.4-1.5,6.3c-0.8,1.9-2,3.6-3.4,4.9
		c-1.4,1.4-3.1,2.5-5,3.2c-1.9,0.8-4,1.1-6.4,1.1c-2.8,0-5.4-0.5-7.7-1.6c-2.3-1.1-4.2-2.5-5.7-4.4c-1.6-1.8-2.8-4-3.6-6.4
		c-0.8-2.5-1.3-5.1-1.3-7.8c0-2.7,0.4-5.3,1.3-7.8c0.8-2.4,2-4.6,3.6-6.4c1.6-1.8,3.5-3.3,5.7-4.4c2.2-1.1,4.8-1.6,7.7-1.6
		c2.2,0,4.1,0.3,6,0.9c1.9,0.6,3.5,1.5,5,2.6c1.4,1.1,2.6,2.5,3.5,4.1c0.9,1.6,1.4,3.5,1.6,5.6H537z"/>
</g>
<g>
	<path d="M260.5,410.6c-2.3-4.6-6.5-6.9-12.6-6.9c-3.4,0-6.1,0.9-8.3,2.8c-2.2,1.9-3.9,4.9-5.1,9.1c-1.2,4.2-2.1,9.7-2.6,16.4
		c-0.5,6.8-0.7,15-0.7,24.8c0,10.4,0.3,18.8,1,25.3c0.7,6.5,1.7,11.4,3.2,15c1.4,3.6,3.2,5.9,5.4,7.1c2.2,1.2,4.7,1.8,7.5,1.8
		c2.3,0,4.6-0.4,6.6-1.3c2-0.8,3.8-2.5,5.3-5c1.5-2.5,2.7-6.1,3.5-10.6c0.9-4.6,1.3-10.6,1.3-18h26.8c0,7.5-0.5,14.5-1.7,21.2
		c-1.1,6.7-3.2,12.6-6.2,17.6c-3,5-7.3,8.9-12.8,11.8c-5.5,2.8-12.7,4.2-21.5,4.2c-10.1,0-18.1-1.7-24-5c-6-3.3-10.5-8.2-13.7-14.5
		c-3.2-6.3-5.2-13.9-6.1-22.6c-0.9-8.8-1.4-18.4-1.4-29c0-10.4,0.5-20,1.4-28.9c0.9-8.8,3-16.4,6.1-22.7c3.2-6.3,7.7-11.2,13.7-14.8
		c6-3.5,14-5.3,24-5.3c9.6,0,17.1,1.6,22.6,4.8c5.5,3.2,9.7,7.3,12.4,12.3c2.7,5,4.4,10.3,5.1,16c0.7,5.7,1,11.1,1,16.1h-26.8
		C263.9,422.5,262.8,415.2,260.5,410.6z"/>
	<path d="M347.6,386c11.2,0,19.9,2.9,26.1,8.8c6.2,5.9,9.3,14.8,9.3,26.7c0,9.3-1.8,16.8-5.4,22.7c-3.6,5.9-9.2,9.6-16.8,11.3v0.4
		c6.7,1,11.6,3.3,14.7,6.8c3.1,3.5,5,9.1,5.8,16.8c0.3,2.6,0.4,5.4,0.6,8.4c0.1,3,0.2,6.4,0.4,10.1c0.2,7.3,0.6,12.9,1.1,16.8
		c0.8,3.9,2.4,6.5,4.9,7.9v1.1h-29.1c-1.4-1.9-2.2-4.1-2.6-6.6c-0.4-2.5-0.6-5.1-0.7-7.8L355,483c-0.3-5.4-1.5-9.7-3.9-12.7
		c-2.4-3.1-6.3-4.6-11.9-4.6h-14.3v58.3H298V386H347.6z M336,446.3c6.5,0,11.4-1.6,14.9-4.7c3.5-3.1,5.2-8.5,5.2-15.9
		c0-12.7-6.2-19.1-18.6-19.1h-12.7v39.8H336z"/>
	<path d="M466.6,408.8h-47.5v32.5h44.7V464h-44.7v37.1h49.4v22.8h-76.2V386h74.3V408.8z"/>
	<path d="M471.3,426.1c0.9-8.8,3-16.4,6.2-22.7c3.2-6.3,7.7-11.2,13.7-14.8c6-3.5,14-5.3,24-5.3c10.1,0,18.1,1.8,24,5.3
		c6,3.6,10.5,8.5,13.7,14.8c3.2,6.3,5.2,13.9,6.1,22.7c0.9,8.8,1.4,18.4,1.4,28.9c0,10.6-0.5,20.2-1.4,29c-0.9,8.8-3,16.3-6.1,22.6
		c-3.2,6.3-7.7,11.1-13.7,14.5c-6,3.4-14,5-24,5c-10.1,0-18.1-1.7-24-5c-6-3.3-10.5-8.2-13.7-14.5c-3.2-6.3-5.2-13.9-6.2-22.6
		c-0.9-8.8-1.4-18.4-1.4-29C469.9,444.5,470.4,434.9,471.3,426.1z M497.4,478.6c0.4,6.5,1.3,11.8,2.6,15.8c1.3,4.1,3.2,7,5.6,8.9
		c2.4,1.9,5.6,2.8,9.6,2.8c4,0,7.2-0.9,9.6-2.8c2.4-1.9,4.3-4.8,5.6-8.9c1.3-4.1,2.2-9.3,2.6-15.8c0.4-6.5,0.7-14.4,0.7-23.7
		c0-9.3-0.2-17.1-0.7-23.6c-0.4-6.4-1.3-11.7-2.6-15.8c-1.3-4.1-3.2-7.1-5.6-9c-2.4-1.9-5.6-2.8-9.6-2.8c-4,0-7.2,0.9-9.6,2.8
		c-2.4,1.9-4.3,4.9-5.6,9c-1.3,4.1-2.2,9.4-2.6,15.8c-0.4,6.4-0.6,14.3-0.6,23.6C496.7,464.2,497,472.1,497.4,478.6z"/>
</g>
<g>
	<path d="M581.5,506c4.7,0,8.4,3.8,8.4,8.4c0,4.7-3.8,8.4-8.4,8.4c-2.4,0-4.6-1.1-6.2-2.7c1.9,5.3,7,9.2,12.9,9.2
		c7.6,0,13.8-6.2,13.8-13.8c0-7.6-6.2-13.8-13.8-13.8c-4.4,0-8.3,2.1-10.8,5.3C578.7,506.4,580.1,506,581.5,506z"/>
	<path d="M593.9,500.9c0,0,8.1-112.7,8.3-114.3c0.3-1.6,0.7-1.1-0.7-1.9c-9.2-5-21.8-3.3-25.6-0.3c-1.5,1.1-0.9,1.6-0.7,3.3
		c0.3,1.7,8.5,112.9,8.5,112.9S589.2,498.2,593.9,500.9z"/>
</g>
<g>
	<path class="st1" d="M180.5,421.9c0,0,8.1,112.7,8.3,114.2c0.2,1.6,0.7,1.1-0.7,1.9c-9.2,5-21.8,3.3-25.6,0.3
		c-1.5-1.2-0.9-1.6-0.7-3.3c0.3-1.7,8.6-112.9,8.6-112.9S175.9,424.7,180.5,421.9z"/>
	<polygon class="st0" points="179.2,263.7 171.1,271.8 172.6,396.8 176.2,323 175.8,397.1 178,397.1 	"/>
	<path class="st1" d="M168.2,416.9c4.7,0,8.4-3.8,8.4-8.4c0-4.7-3.8-8.4-8.4-8.4c-2.4,0-4.6,1.1-6.2,2.7c1.9-5.3,7-9.2,12.9-9.2
		c7.6,0,13.8,6.2,13.8,13.8c0,7.6-6.2,13.8-13.8,13.8c-4.4,0-8.3-2.1-10.8-5.3C165.3,416.5,166.7,416.9,168.2,416.9z"/>
</g>
<polyline class="st2" points="670.9,333 390.6,101.8 390.6,71.9 689,333 626.2,378.5 "/>
<polygon class="st3" points="390.8,71.9 103.2,333 103.3,333.1 103.3,333.1 166.1,378.5 121.4,333 121.5,332.9 121.5,332.9 
	390.8,101.8 "/>
<g>
	<path class="st0" d="M330.9,263.8v-2.3c7.9-7.3,15.7-13.1,23.5-17.4c6.1-3.3,12.5-5.9,19.2-7.7c6.7-1.8,13-2.7,18.9-2.7
		c5.9,0,12.3,0.9,19.2,2.8c6.9,1.9,13.4,4.4,19.3,7.6c4,2.1,7.8,4.5,11.4,7.1c3.6,2.7,7.6,6.1,12.1,10.2v2.3l-2.3-1.2
		c-6.8-3.7-12.8-6.4-17.7-8.4c-5-1.9-10.2-3.4-15.7-4.5c-3.9-0.8-8.4-1.5-13.4-2c-5-0.5-9.2-0.8-12.7-0.8c-4.1,0-9.1,0.4-14.9,1
		c-8.7,1-16.2,2.6-22.4,4.6c-6.2,2-13.6,5.4-22.4,10L330.9,263.8z"/>
	<path class="st1" d="M392.7,246.9c-4.1,0-9.1,0.3-14.9,1c-8.7,1-16.2,2.6-22.4,4.6c-6.2,2-13.6,5.4-22.4,10.1l-2.3,1.2v-2.3
		c7.9-7.3,15.7-13.1,23.5-17.4c6.1-3.3,12.5-5.9,19.2-7.7c6.7-1.8,13-2.7,18.9-2.7"/>
</g>
</svg>
